# xmcd
#
# Track frame offsets: 
#        180
#        12643
#        22863
#        38914
#        52469
#        63026
#        73250
#        90846
#        102076
#        110685
#        120291
#        129059
#        137724
#        149349
#        159614
#        171879
#        183613
#        201388
#        211620
#
# Disc length: 2952 seconds
#
# Revision: 2
# Processed by: cddbd v1.5.2PL0 Copyright (c) Steve Scherf et al.
# Submitted via: ExactAudioCopy v1.0b3
#
DISCID=0b0b8613
DTITLE=Shields - You Cheated You Lied
DYEAR=1987
DGENRE=Groups
TTITLE0=On my merry way
TTITLE1=Playing numbers
TTITLE2=Route 66
TTITLE3=Messing with the kid
TTITLE4=You cheated
TTITLE5=Christmas eve baby
TTITLE6=It's Christmas time
TTITLE7=Dragnet blues
TTITLE8=I'm sorry now
TTITLE9=Be my girl
TTITLE10=That's the way it's gonna be
TTITLE11=Gee how I love you
TTITLE12=Nature boy
TTITLE13=Suicide blues
TTITLE14=Johnny Ace's last letter
TTITLE15=Why don't you go
TTITLE16=Decorate my Christmas tree
TTITLE17=Christmas everyday
TTITLE18=Whilhelmina
EXTD=
EXTT0=
EXTT1=
EXTT2=
EXTT3=
EXTT4=
EXTT5=
EXTT6=
EXTT7=
EXTT8=
EXTT9=
EXTT10=
EXTT11=
EXTT12=
EXTT13=
EXTT14=
EXTT15=
EXTT16=
EXTT17=
EXTT18=
PLAYORDER=
